ffmpeg started on 2025-06-06 at 19:54:58
Report written to "D:\Convert\FFMetrics\reports\ssim_report-6.txt"
Log level: 32
Command line:
ffmpeg -hide_banner -nostdin -i "G:\\\xc0\xed\xe8\xec\xe5\\\xce\xed\xe3\xee\xe8\xed\xe3\xe8\\!_36_\xce\xf1\xe5\xed\xfc_2024\\DreamCast\\\xd0\xee\xed \xca\xe0\xec\xee\xed\xee\xf5\xe0\xf1\xe8 - \xcd\xe5\xe2\xec\xe5\xed\xff\xe5\xec\xfb\xe9 \xe4\xe5\xf2\xe5\xea\xf2\xe8\xe2\\\xd2\xc2-2\\DC_Kamonohashi_Ron_no_Kindan_Suiri_2nd_Season_09_Telegram_HEVC.mkv" -i "G:\\\xc0\xed\xe8\xec\xe5\\\xce\xed\xe3\xee\xe8\xed\xe3\xe8\\!_36_\xce\xf1\xe5\xed\xfc_2024\\DreamCast\\\xd0\xee\xed \xca\xe0\xec\xee\xed\xee\xf5\xe0\xf1\xe8 - \xcd\xe5\xe2\xec\xe5\xed\xff\xe5\xec\xfb\xe9 \xe4\xe5\xf2\xe5\xea\xf2\xe8\xe2\\\xd2\xc2-2\\DC_Kamonohashi_Ron_no_Kindan_Suiri_2nd_Season_09_Telegram.mp4" -lavfi "[0:v]settb=AVTB,setpts=PTS-STARTPTS,format=pix_fmts=yuv420p10,fps=24000/1001,scale=1920:1080:flags=bicubic[main];[1:v]settb=AVTB,setpts=PTS-STARTPTS,format=pix_fmts=yuv420p,fps=24000/1001,scale=1920:1080:flags=bicubic[ref];[main][ref]ssim=eof_action=endall:stats_file='D\\:/Convert/FFMetrics/logs/ssim_logfile-6.txt'" -f null -
Input #0, matroska,webm, from 'G:\Аниме\Онгоинги\!_36_Осень_2024\DreamCast\Рон Камонохаси - Невменяемый детектив\ТВ-2\DC_Kamonohashi_Ron_no_Kindan_Suiri_2nd_Season_09_Telegram_HEVC.mkv':
  Metadata:
    COMPATIBLE_BRANDS: isomiso2avc1mp41
    MAJOR_BRAND     : isom
    MINOR_VERSION   : 512
    ENCODER         : Lavf61.7.100
  Duration: 00:23:46.69, start: -0.021000, bitrate: 868 kb/s
  Stream #0:0: Video: hevc (Main 10), yuv420p10le(tv, bt709, progressive), 1920x1080 [SAR 1:1 DAR 16:9], 23.98 fps, 23.98 tbr, 1k tbn (default)
      Metadata:
        HANDLER_NAME    : VideoHandler
        VENDOR_ID       : [0][0][0][0]
        ENCODER         : Lavc61.19.100 libx265
        BPS             : 670666
        DURATION        : 00:23:46.591708333
        NUMBER_OF_FRAMES: 34204
        NUMBER_OF_BYTES : 119595804
        _STATISTICS_WRITING_APP: mkvpropedit v66.0.0 ('Josie') 64-bit
        _STATISTICS_WRITING_DATE_UTC: 2025-06-04 08:07:53
        _STATISTICS_TAGS: BPS DURATION NUMBER_OF_FRAMES NUMBER_OF_BYTES
  Stream #0:1: Audio: aac (LC), 48000 Hz, stereo, fltp (default)
      Metadata:
        HANDLER_NAME    : SoundHandler
        VENDOR_ID       : [0][0][0][0]
        ENCODER         : Lavc61.19.100 aac
        BPS             : 193405
        DURATION        : 00:23:46.688000000
        NUMBER_OF_FRAMES: 66877
        NUMBER_OF_BYTES : 34491081
        _STATISTICS_WRITING_APP: mkvpropedit v66.0.0 ('Josie') 64-bit
        _STATISTICS_WRITING_DATE_UTC: 2025-06-04 08:07:53
        _STATISTICS_TAGS: BPS DURATION NUMBER_OF_FRAMES NUMBER_OF_BYTES
Input #1, mov,mp4,m4a,3gp,3g2,mj2, from 'G:\Аниме\Онгоинги\!_36_Осень_2024\DreamCast\Рон Камонохаси - Невменяемый детектив\ТВ-2\DC_Kamonohashi_Ron_no_Kindan_Suiri_2nd_Season_09_Telegram.mp4':
  Metadata:
    major_brand     : isom
    minor_version   : 512
    compatible_brands: isomiso2avc1mp41
    encoder         : Lavf60.16.100
  Duration: 00:23:46.66, start: 0.000000, bitrate: 3606 kb/s
  Stream #1:0[0x1](und): Video: h264 (High) (avc1 / 0x31637661), yuv420p(tv, bt709, progressive), 1920x1080 [SAR 1:1 DAR 16:9], 3458 kb/s, 23.98 fps, 23.98 tbr, 24k tbn (default)
      Metadata:
        handler_name    : VideoHandler
        vendor_id       : [0][0][0][0]
        encoder         : Lavc60.31.102 h264_qsv
  Stream #1:1[0x2](und): Audio: aac (HE-AACv2) (mp4a / 0x6134706D), 48000 Hz, stereo, fltp, 144 kb/s (default)
      Metadata:
        handler_name    : SoundHandler
        vendor_id       : [0][0][0][0]
Stream mapping:
  Stream #0:0 (hevc) -> settb:default
  Stream #1:0 (h264) -> settb:default
  ssim:default -> Stream #0:0 (wrapped_avframe)
  Stream #0:1 -> #0:1 (aac (native) -> pcm_s16le (native))
Output #0, null, to 'pipe:':
  Metadata:
    COMPATIBLE_BRANDS: isomiso2avc1mp41
    MAJOR_BRAND     : isom
    MINOR_VERSION   : 512
    encoder         : Lavf61.7.100
  Stream #0:0: Video: wrapped_avframe, yuv420p10le(tv, bt709, progressive), 1920x1080 [SAR 1:1 DAR 16:9], q=2-31, 200 kb/s, 23.98 fps, 23.98 tbn
      Metadata:
        encoder         : Lavc61.19.100 wrapped_avframe
  Stream #0:1: Audio: pcm_s16le, 48000 Hz, stereo, s16, 1536 kb/s (default)
      Metadata:
        HANDLER_NAME    : SoundHandler
        VENDOR_ID       : [0][0][0][0]
        _STATISTICS_TAGS: BPS DURATION NUMBER_OF_FRAMES NUMBER_OF_BYTES
        BPS             : 193405
        DURATION        : 00:23:46.688000000
        NUMBER_OF_FRAMES: 66877
        NUMBER_OF_BYTES : 34491081
        _STATISTICS_WRITING_APP: mkvpropedit v66.0.0 ('Josie') 64-bit
        _STATISTICS_WRITING_DATE_UTC: 2025-06-04 08:07:53
        encoder         : Lavc61.19.100 pcm_s16le
frame=  195 fps=0.0 q=-0.0 size=N/A time=00:00:08.13 bitrate=N/A speed=15.5x    frame=  476 fps=460 q=-0.0 size=N/A time=00:00:19.85 bitrate=N/A speed=19.2x    frame=  718 fps=462 q=-0.0 size=N/A time=00:00:29.94 bitrate=N/A speed=19.3x    frame=  947 fps=459 q=-0.0 size=N/A time=00:00:39.49 bitrate=N/A speed=19.1x    frame= 1196 fps=462 q=-0.0 size=N/A time=00:00:49.88 bitrate=N/A speed=19.3x    frame= 1441 fps=465 q=-0.0 size=N/A time=00:01:00.10 bitrate=N/A speed=19.4x    frame= 1703 fps=471 q=-0.0 size=N/A time=00:01:11.02 bitrate=N/A speed=19.6x    frame= 1963 fps=476 q=-0.0 size=N/A time=00:01:21.87 bitrate=N/A speed=19.9x    frame= 2154 fps=464 q=-0.0 size=N/A time=00:01:29.83 bitrate=N/A speed=19.3x    frame= 2361 fps=458 q=-0.0 size=N/A time=00:01:38.47 bitrate=N/A speed=19.1x    frame= 2548 fps=449 q=-0.0 size=N/A time=00:01:46.27 bitrate=N/A speed=18.7x    frame= 2768 fps=448 q=-0.0 size=N/A time=00:01:55.44 bitrate=N/A speed=18.7x    frame= 3056 fps=456 q=-0.0 size=N/A time=00:02:07.46 bitrate=N/A speed=  19x    frame= 3341 fps=463 q=-0.0 size=N/A time=00:02:19.34 bitrate=N/A speed=19.3x    frame= 3594 fps=464 q=-0.0 size=N/A time=00:02:29.89 bitrate=N/A speed=19.4x    frame= 3838 fps=465 q=-0.0 size=N/A time=00:02:40.07 bitrate=N/A speed=19.4x    frame= 4106 fps=468 q=-0.0 size=N/A time=00:02:51.25 bitrate=N/A speed=19.5x    frame= 4351 fps=468 q=-0.0 size=N/A time=00:03:01.47 bitrate=N/A speed=19.5x    frame= 4594 fps=469 q=-0.0 size=N/A time=00:03:11.60 bitrate=N/A speed=19.5x    frame= 4880 fps=473 q=-0.0 size=N/A time=00:03:23.53 bitrate=N/A speed=19.7x    frame= 5134 fps=474 q=-0.0 size=N/A time=00:03:34.13 bitrate=N/A speed=19.8x    frame= 5403 fps=476 q=-0.0 size=N/A time=00:03:45.35 bitrate=N/A speed=19.9x    frame= 5691 fps=480 q=-0.0 size=N/A time=00:03:57.36 bitrate=N/A speed=  20x    frame= 5964 fps=482 q=-0.0 size=N/A time=00:04:08.74 bitrate=N/A speed=20.1x    frame= 6247 fps=485 q=-0.0 size=N/A time=00:04:20.55 bitrate=N/A speed=20.2x    frame= 6471 fps=483 q=-0.0 size=N/A time=00:04:29.89 bitrate=N/A speed=20.1x    frame= 6733 fps=483 q=-0.0 size=N/A time=00:04:40.82 bitrate=N/A speed=20.2x    frame= 6994 fps=484 q=-0.0 size=N/A time=00:04:51.70 bitrate=N/A speed=20.2x    frame= 7258 fps=485 q=-0.0 size=N/A time=00:05:02.71 bitrate=N/A speed=20.2x    frame= 7513 fps=486 q=-0.0 size=N/A time=00:05:13.35 bitrate=N/A speed=20.3x    frame= 7787 fps=487 q=-0.0 size=N/A time=00:05:24.78 bitrate=N/A speed=20.3x    frame= 8066 fps=489 q=-0.0 size=N/A time=00:05:36.41 bitrate=N/A speed=20.4x    frame= 8328 fps=489 q=-0.0 size=N/A time=00:05:47.34 bitrate=N/A speed=20.4x    frame= 8592 fps=490 q=-0.0 size=N/A time=00:05:58.35 bitrate=N/A speed=20.4x    frame= 8876 fps=492 q=-0.0 size=N/A time=00:06:10.20 bitrate=N/A speed=20.5x    frame= 9131 fps=492 q=-0.0 size=N/A time=00:06:20.83 bitrate=N/A speed=20.5x    frame= 9419 fps=494 q=-0.0 size=N/A time=00:06:32.85 bitrate=N/A speed=20.6x    frame= 9707 fps=495 q=-0.0 size=N/A time=00:06:44.86 bitrate=N/A speed=20.7x    frame= 9980 fps=496 q=-0.0 size=N/A time=00:06:56.24 bitrate=N/A speed=20.7x    frame=10272 fps=498 q=-0.0 size=N/A time=00:07:08.42 bitrate=N/A speed=20.8x    frame=10533 fps=498 q=-0.0 size=N/A time=00:07:19.31 bitrate=N/A speed=20.8x    frame=10792 fps=498 q=-0.0 size=N/A time=00:07:30.11 bitrate=N/A speed=20.8x    frame=11068 fps=499 q=-0.0 size=N/A time=00:07:41.62 bitrate=N/A speed=20.8x    frame=11346 fps=500 q=-0.0 size=N/A time=00:07:53.22 bitrate=N/A speed=20.9x    frame=11599 fps=500 q=-0.0 size=N/A time=00:08:03.77 bitrate=N/A speed=20.8x    frame=11866 fps=500 q=-0.0 size=N/A time=00:08:14.91 bitrate=N/A speed=20.9x    frame=12150 fps=501 q=-0.0 size=N/A time=00:08:26.75 bitrate=N/A speed=20.9x    frame=12417 fps=502 q=-0.0 size=N/A time=00:08:37.89 bitrate=N/A speed=20.9x    frame=12708 fps=503 q=-0.0 size=N/A time=00:08:50.02 bitrate=N/A speed=  21x    frame=12982 fps=503 q=-0.0 size=N/A time=00:09:01.45 bitrate=N/A speed=  21x    frame=13242 fps=503 q=-0.0 size=N/A time=00:09:12.30 bitrate=N/A speed=  21x    frame=13496 fps=503 q=-0.0 size=N/A time=00:09:22.89 bitrate=N/A speed=  21x    frame=13744 fps=503 q=-0.0 size=N/A time=00:09:33.23 bitrate=N/A speed=  21x    frame=13986 fps=502 q=-0.0 size=N/A time=00:09:43.33 bitrate=N/A speed=20.9x    frame=14231 fps=502 q=-0.0 size=N/A time=00:09:53.55 bitrate=N/A speed=20.9x    frame=14475 fps=501 q=-0.0 size=N/A time=00:10:03.72 bitrate=N/A speed=20.9x    frame=14739 fps=501 q=-0.0 size=N/A time=00:10:14.73 bitrate=N/A speed=20.9x    frame=15001 fps=501 q=-0.0 size=N/A time=00:10:25.66 bitrate=N/A speed=20.9x    frame=15263 fps=502 q=-0.0 size=N/A time=00:10:36.59 bitrate=N/A speed=20.9x    frame=15509 fps=501 q=-0.0 size=N/A time=00:10:46.85 bitrate=N/A speed=20.9x    frame=15790 fps=502 q=-0.0 size=N/A time=00:10:58.57 bitrate=N/A speed=20.9x    frame=16041 fps=502 q=-0.0 size=N/A time=00:11:09.04 bitrate=N/A speed=20.9x    frame=16286 fps=501 q=-0.0 size=N/A time=00:11:19.26 bitrate=N/A speed=20.9x    frame=16558 fps=502 q=-0.0 size=N/A time=00:11:30.60 bitrate=N/A speed=20.9x    frame=16823 fps=502 q=-0.0 size=N/A time=00:11:41.65 bitrate=N/A speed=20.9x    frame=17107 fps=503 q=-0.0 size=N/A time=00:11:53.50 bitrate=N/A speed=  21x    frame=17392 fps=503 q=-0.0 size=N/A time=00:12:05.39 bitrate=N/A speed=  21x    frame=17674 fps=504 q=-0.0 size=N/A time=00:12:17.15 bitrate=N/A speed=  21x    frame=17966 fps=505 q=-0.0 size=N/A time=00:12:29.33 bitrate=N/A speed=21.1x    frame=18228 fps=505 q=-0.0 size=N/A time=00:12:40.25 bitrate=N/A speed=21.1x    frame=18494 fps=505 q=-0.0 size=N/A time=00:12:51.35 bitrate=N/A speed=21.1x    frame=18777 fps=506 q=-0.0 size=N/A time=00:13:03.15 bitrate=N/A speed=21.1x    frame=19051 fps=506 q=-0.0 size=N/A time=00:13:14.58 bitrate=N/A speed=21.1x    frame=19320 fps=506 q=-0.0 size=N/A time=00:13:25.80 bitrate=N/A speed=21.1x    frame=19610 fps=507 q=-0.0 size=N/A time=00:13:37.90 bitrate=N/A speed=21.1x    frame=19862 fps=507 q=-0.0 size=N/A time=00:13:48.41 bitrate=N/A speed=21.1x    frame=20112 fps=507 q=-0.0 size=N/A time=00:13:58.83 bitrate=N/A speed=21.1x    frame=20385 fps=507 q=-0.0 size=N/A time=00:14:10.22 bitrate=N/A speed=21.1x    frame=20659 fps=507 q=-0.0 size=N/A time=00:14:21.65 bitrate=N/A speed=21.2x    frame=20931 fps=507 q=-0.0 size=N/A time=00:14:32.99 bitrate=N/A speed=21.2x    frame=21219 fps=508 q=-0.0 size=N/A time=00:14:45.00 bitrate=N/A speed=21.2x    frame=21495 fps=508 q=-0.0 size=N/A time=00:14:56.52 bitrate=N/A speed=21.2x    frame=21761 fps=508 q=-0.0 size=N/A time=00:15:07.61 bitrate=N/A speed=21.2x    frame=22020 fps=508 q=-0.0 size=N/A time=00:15:18.41 bitrate=N/A speed=21.2x    frame=22302 fps=509 q=-0.0 size=N/A time=00:15:30.17 bitrate=N/A speed=21.2x    frame=22570 fps=509 q=-0.0 size=N/A time=00:15:41.35 bitrate=N/A speed=21.2x    frame=22827 fps=509 q=-0.0 size=N/A time=00:15:52.07 bitrate=N/A speed=21.2x    frame=23087 fps=509 q=-0.0 size=N/A time=00:16:02.92 bitrate=N/A speed=21.2x    frame=23335 fps=508 q=-0.0 size=N/A time=00:16:13.26 bitrate=N/A speed=21.2x    frame=23592 fps=508 q=-0.0 size=N/A time=00:16:23.98 bitrate=N/A speed=21.2x    frame=23855 fps=508 q=-0.0 size=N/A time=00:16:34.95 bitrate=N/A speed=21.2x    frame=24086 fps=508 q=-0.0 size=N/A time=00:16:44.62 bitrate=N/A speed=21.2x    frame=24344 fps=508 q=-0.0 size=N/A time=00:16:55.34 bitrate=N/A speed=21.2x    frame=24602 fps=508 q=-0.0 size=N/A time=00:17:06.10 bitrate=N/A speed=21.2x    frame=24858 fps=507 q=-0.0 size=N/A time=00:17:16.78 bitrate=N/A speed=21.2x    frame=25115 fps=507 q=-0.0 size=N/A time=00:17:27.50 bitrate=N/A speed=21.2x    frame=25380 fps=507 q=-0.0 size=N/A time=00:17:38.55 bitrate=N/A speed=21.2x    frame=25635 fps=507 q=-0.0 size=N/A time=00:17:49.19 bitrate=N/A speed=21.2x    frame=25872 fps=507 q=-0.0 size=N/A time=00:17:59.07 bitrate=N/A speed=21.1x    frame=26151 fps=507 q=-0.0 size=N/A time=00:18:10.71 bitrate=N/A speed=21.2x    frame=26431 fps=508 q=-0.0 size=N/A time=00:18:22.39 bitrate=N/A speed=21.2x    frame=26709 fps=508 q=-0.0 size=N/A time=00:18:33.98 bitrate=N/A speed=21.2x    frame=26982 fps=508 q=-0.0 size=N/A time=00:18:45.37 bitrate=N/A speed=21.2x    frame=27264 fps=508 q=-0.0 size=N/A time=00:18:57.13 bitrate=N/A speed=21.2x    frame=27536 fps=508 q=-0.0 size=N/A time=00:19:08.48 bitrate=N/A speed=21.2x    frame=27811 fps=509 q=-0.0 size=N/A time=00:19:19.95 bitrate=N/A speed=21.2x    frame=28077 fps=509 q=-0.0 size=N/A time=00:19:31.04 bitrate=N/A speed=21.2x    frame=28288 fps=508 q=-0.0 size=N/A time=00:19:39.84 bitrate=N/A speed=21.2x    frame=28508 fps=507 q=-0.0 size=N/A time=00:19:49.02 bitrate=N/A speed=21.1x    frame=28690 fps=506 q=-0.0 size=N/A time=00:19:56.61 bitrate=N/A speed=21.1x    frame=28895 fps=505 q=-0.0 size=N/A time=00:20:05.16 bitrate=N/A speed=  21x    frame=29096 fps=504 q=-0.0 size=N/A time=00:20:13.54 bitrate=N/A speed=  21x    frame=29346 fps=503 q=-0.0 size=N/A time=00:20:23.97 bitrate=N/A speed=  21x    frame=29591 fps=503 q=-0.0 size=N/A time=00:20:34.19 bitrate=N/A speed=  21x    frame=29846 fps=503 q=-0.0 size=N/A time=00:20:44.82 bitrate=N/A speed=  21x    frame=30085 fps=503 q=-0.0 size=N/A time=00:20:54.79 bitrate=N/A speed=  21x    frame=30279 fps=502 q=-0.0 size=N/A time=00:21:02.88 bitrate=N/A speed=20.9x    frame=30475 fps=501 q=-0.0 size=N/A time=00:21:11.06 bitrate=N/A speed=20.9x    frame=30722 fps=501 q=-0.0 size=N/A time=00:21:21.36 bitrate=N/A speed=20.9x    frame=30970 fps=500 q=-0.0 size=N/A time=00:21:31.70 bitrate=N/A speed=20.9x    frame=31233 fps=500 q=-0.0 size=N/A time=00:21:42.67 bitrate=N/A speed=20.9x    frame=31498 fps=501 q=-0.0 size=N/A time=00:21:53.72 bitrate=N/A speed=20.9x    frame=31733 fps=500 q=-0.0 size=N/A time=00:22:03.53 bitrate=N/A speed=20.9x    frame=31992 fps=500 q=-0.0 size=N/A time=00:22:14.33 bitrate=N/A speed=20.9x    frame=32246 fps=500 q=-0.0 size=N/A time=00:22:24.92 bitrate=N/A speed=20.9x    frame=32512 fps=500 q=-0.0 size=N/A time=00:22:36.02 bitrate=N/A speed=20.9x    frame=32761 fps=500 q=-0.0 size=N/A time=00:22:46.40 bitrate=N/A speed=20.9x    frame=33026 fps=500 q=-0.0 size=N/A time=00:22:57.45 bitrate=N/A speed=20.9x    frame=33237 fps=500 q=-0.0 size=N/A time=00:23:06.25 bitrate=N/A speed=20.8x    frame=33479 fps=499 q=-0.0 size=N/A time=00:23:16.35 bitrate=N/A speed=20.8x    frame=33736 fps=499 q=-0.0 size=N/A time=00:23:27.07 bitrate=N/A speed=20.8x    frame=33983 fps=499 q=-0.0 size=N/A time=00:23:37.37 bitrate=N/A speed=20.8x    [Parsed_ssim_10 @ 000001ee138a5300] SSIM Y:0.995588 (23.553545) U:0.993263 (21.715530) V:0.994274 (22.421857) All:0.994982 (22.994316)
[out#0/null @ 000001ee13b95a00] video:14697KiB audio:267508KiB subtitle:0KiB other streams:0KiB global headers:0KiB muxing overhead: unknown
frame=34204 fps=499 q=-0.0 Lsize=N/A time=00:23:46.59 bitrate=N/A speed=20.8x    
